<svg width="1000" height="340" xmlns="http://www.w3.org/2000/svg"><g transform="translate(0, 0)">
      <rect x="0.5" y="0.5" width="489" height="99" rx="12" fill="#09090b" stroke="#27272a" stroke-width="1"/>
      <rect x="20" y="26" width="48" height="48" rx="6" fill="#18181b" />
      <g transform="translate(32, 38)">
        <svg
  xmlns="http://www.w3.org/2000/svg"
  width="24"
  height="24"
  viewBox="0 0 24 24"
  fill="none"
  stroke="#ffffff"
  stroke-width="2"
  stroke-linecap="round"
  stroke-linejoin="round"
>
  <rect width="18" height="7" x="3" y="3" rx="1" />
  <rect width="9" height="7" x="3" y="14" rx="1" />
  <rect width="5" height="7" x="16" y="14" rx="1" />
</svg>

      </g>
      <text x="88" y="48" font-family="-apple-system, system-ui, sans-serif" font-size="20" font-weight="bold" fill="#ffffff">Web Design</text>
      <text x="88" y="70" font-family="-apple-system, system-ui, sans-serif" font-size="14" fill="#a1a1aa">Crafting captivating user experiences.</text>
    </g><g transform="translate(510, 0)">
      <rect x="0.5" y="0.5" width="489" height="99" rx="12" fill="#09090b" stroke="#27272a" stroke-width="1"/>
      <rect x="20" y="26" width="48" height="48" rx="6" fill="#18181b" />
      <g transform="translate(32, 38)">
        <svg
  xmlns="http://www.w3.org/2000/svg"
  width="24"
  height="24"
  viewBox="0 0 24 24"
  fill="none"
  stroke="#ffffff"
  stroke-width="2"
  stroke-linecap="round"
  stroke-linejoin="round"
>
  <path d="m18 16 4-4-4-4" />
  <path d="m6 8-4 4 4 4" />
  <path d="m14.5 4-5 16" />
</svg>

      </g>
      <text x="88" y="48" font-family="-apple-system, system-ui, sans-serif" font-size="20" font-weight="bold" fill="#ffffff">Web Development</text>
      <text x="88" y="70" font-family="-apple-system, system-ui, sans-serif" font-size="14" fill="#a1a1aa">Building robust web solutions.</text>
    </g><g transform="translate(0, 120)">
      <rect x="0.5" y="0.5" width="489" height="99" rx="12" fill="#09090b" stroke="#27272a" stroke-width="1"/>
      <rect x="20" y="26" width="48" height="48" rx="6" fill="#18181b" />
      <g transform="translate(32, 38)">
        <svg
  xmlns="http://www.w3.org/2000/svg"
  width="24"
  height="24"
  viewBox="0 0 24 24"
  fill="none"
  stroke="#ffffff"
  stroke-width="2"
  stroke-linecap="round"
  stroke-linejoin="round"
>
  <path d="M18 8V6a2 2 0 0 0-2-2H4a2 2 0 0 0-2 2v7a2 2 0 0 0 2 2h8" />
  <path d="M10 19v-3.96 3.15" />
  <path d="M7 19h5" />
  <rect width="6" height="10" x="16" y="12" rx="2" />
</svg>

      </g>
      <text x="88" y="48" font-family="-apple-system, system-ui, sans-serif" font-size="20" font-weight="bold" fill="#ffffff">App Design</text>
      <text x="88" y="70" font-family="-apple-system, system-ui, sans-serif" font-size="14" fill="#a1a1aa">Intuitive cross-platform interfaces.</text>
    </g><g transform="translate(510, 120)">
      <rect x="0.5" y="0.5" width="489" height="99" rx="12" fill="#09090b" stroke="#27272a" stroke-width="1"/>
      <rect x="20" y="26" width="48" height="48" rx="6" fill="#18181b" />
      <g transform="translate(32, 38)">
        <svg
  xmlns="http://www.w3.org/2000/svg"
  width="24"
  height="24"
  viewBox="0 0 24 24"
  fill="none"
  stroke="#ffffff"
  stroke-width="2"
  stroke-linecap="round"
  stroke-linejoin="round"
>
  <rect width="20" height="16" x="2" y="4" rx="2" />
  <path d="M6 8h.01" />
  <path d="M10 8h.01" />
  <path d="M14 8h.01" />
</svg>

      </g>
      <text x="88" y="48" font-family="-apple-system, system-ui, sans-serif" font-size="20" font-weight="bold" fill="#ffffff">App Development</text>
      <text x="88" y="70" font-family="-apple-system, system-ui, sans-serif" font-size="14" fill="#a1a1aa">Desktop, web &amp; mobile apps.</text>
    </g><g transform="translate(0, 240)">
      <rect x="0.5" y="0.5" width="489" height="99" rx="12" fill="#09090b" stroke="#27272a" stroke-width="1"/>
      <rect x="20" y="26" width="48" height="48" rx="6" fill="#18181b" />
      <g transform="translate(32, 38)">
        <svg
  xmlns="http://www.w3.org/2000/svg"
  width="24"
  height="24"
  viewBox="0 0 24 24"
  fill="none"
  stroke="#ffffff"
  stroke-width="2"
  stroke-linecap="round"
  stroke-linejoin="round"
>
  <path d="M16 7h6v6" />
  <path d="m22 7-8.5 8.5-5-5L2 17" />
</svg>

      </g>
      <text x="88" y="48" font-family="-apple-system, system-ui, sans-serif" font-size="20" font-weight="bold" fill="#ffffff">SEO Optimization</text>
      <text x="88" y="70" font-family="-apple-system, system-ui, sans-serif" font-size="14" fill="#a1a1aa">Elevating online visibility.</text>
    </g><g transform="translate(510, 240)">
      <rect x="0.5" y="0.5" width="489" height="99" rx="12" fill="#09090b" stroke="#27272a" stroke-width="1"/>
      <rect x="20" y="26" width="48" height="48" rx="6" fill="#18181b" />
      <g transform="translate(32, 38)">
        <svg
  xmlns="http://www.w3.org/2000/svg"
  width="24"
  height="24"
  viewBox="0 0 24 24"
  fill="none"
  stroke="#ffffff"
  stroke-width="2"
  stroke-linecap="round"
  stroke-linejoin="round"
>
  <path d="M12 19h8" />
  <path d="m4 17 6-6-6-6" />
</svg>

      </g>
      <text x="88" y="48" font-family="-apple-system, system-ui, sans-serif" font-size="20" font-weight="bold" fill="#ffffff">Python Development</text>
      <text x="88" y="70" font-family="-apple-system, system-ui, sans-serif" font-size="14" fill="#a1a1aa">Scripting &amp; Backend solutions.</text>
    </g></svg>