<svg width="1000" height="340" xmlns="http://www.w3.org/2000/svg">
<g transform="translate(0, 0)">
      <rect x="0.5" y="0.5" width="489" height="99" rx="16" fill="#0A0D12" stroke="#30363D" stroke-width="1"/>
      <rect x="20" y="26" width="48" height="48" rx="8" fill="#12171E" />
      <g transform="translate(32, 38)">
        <svg viewBox="0 0 24 24" width="24" height="24"><path fill="#ffffff" d="M12 2C6.48 2 2 6.48 2 12s4.48 10 10 10 10-4.48 10-10S17.52 2 12 2zm-1 17.93c-3.95-.49-7-3.85-7-7.93 0-.62.08-1.22.21-1.79L9 15v1c0 1.1.9 2 2 2v1.93zm6.9-2.54c-.26-.81-1-1.39-1.9-1.39h-1v-3c0-.55-.45-1-1-1H8v-2h2c.55 0 1-.45 1-1V7h2c1.1 0 2-.9 2-2v-.41c2.93 1.19 5 4.06 5 7.41 0 2.08-.8 3.97-2.1 5.39z"/></svg>
      </g>
      <text x="88" y="48" font-family="-apple-system, system-ui, sans-serif" font-size="20" font-weight="bold" fill="#ffffff">Web Design</text>
      <text x="88" y="70" font-family="-apple-system, system-ui, sans-serif" font-size="14" fill="#8b949e">Crafting captivating user experiences.</text>
    </g><g transform="translate(510, 0)">
      <rect x="0.5" y="0.5" width="489" height="99" rx="16" fill="#0A0D12" stroke="#30363D" stroke-width="1"/>
      <rect x="20" y="26" width="48" height="48" rx="8" fill="#12171E" />
      <g transform="translate(32, 38)">
        <svg viewBox="0 0 24 24" width="24" height="24"><path fill="#ffffff" d="M9.4 16.6L4.8 12l4.6-4.6L8 6l-6 6 6 6 1.4-1.4zm5.2 0l4.6-4.6-4.6-4.6L16 6l6 6-6 6-1.4-1.4z"/></svg>
      </g>
      <text x="88" y="48" font-family="-apple-system, system-ui, sans-serif" font-size="20" font-weight="bold" fill="#ffffff">Web Development</text>
      <text x="88" y="70" font-family="-apple-system, system-ui, sans-serif" font-size="14" fill="#8b949e">Building robust web solutions.</text>
    </g><g transform="translate(0, 120)">
      <rect x="0.5" y="0.5" width="489" height="99" rx="16" fill="#0A0D12" stroke="#30363D" stroke-width="1"/>
      <rect x="20" y="26" width="48" height="48" rx="8" fill="#12171E" />
      <g transform="translate(32, 38)">
        <svg viewBox="0 0 24 24" width="24" height="24"><path fill="#ffffff" d="M17 1.01L7 1c-1.1 0-2 .9-2 2v18c0 1.1.9 2 2 2h10c1.1 0 2-.9 2-2V3c0-1.1-.9-1.99-2-1.99zM17 19H7V5h10v14z"/></svg>
      </g>
      <text x="88" y="48" font-family="-apple-system, system-ui, sans-serif" font-size="20" font-weight="bold" fill="#ffffff">App Design</text>
      <text x="88" y="70" font-family="-apple-system, system-ui, sans-serif" font-size="14" fill="#8b949e">Intuitive mobile interfaces.</text>
    </g><g transform="translate(510, 120)">
      <rect x="0.5" y="0.5" width="489" height="99" rx="16" fill="#0A0D12" stroke="#30363D" stroke-width="1"/>
      <rect x="20" y="26" width="48" height="48" rx="8" fill="#12171E" />
      <g transform="translate(32, 38)">
        <svg viewBox="0 0 24 24" width="24" height="24"><path fill="#ffffff" d="M19 3H5c-1.1 0-1.99.9-1.99 2L3 19c0 1.1.9 2 2 2h14c1.1 0 2-.9 2-2V5c0-1.1-.9-2-2-2zm0 14H5V7h14v10zm-7.5-6.5l-3 3-1.41-1.41L10.67 10.5l-1.58-1.59L10.5 7.5l3 3z"/></svg>
      </g>
      <text x="88" y="48" font-family="-apple-system, system-ui, sans-serif" font-size="20" font-weight="bold" fill="#ffffff">App Development</text>
      <text x="88" y="70" font-family="-apple-system, system-ui, sans-serif" font-size="14" fill="#8b949e">Cross-platform mobile apps.</text>
    </g><g transform="translate(0, 240)">
      <rect x="0.5" y="0.5" width="489" height="99" rx="16" fill="#0A0D12" stroke="#30363D" stroke-width="1"/>
      <rect x="20" y="26" width="48" height="48" rx="8" fill="#12171E" />
      <g transform="translate(32, 38)">
        <svg viewBox="0 0 24 24" width="24" height="24"><path fill="#ffffff" d="M15.5 14h-.79l-.28-.27C15.41 12.59 16 11.11 16 9.5 16 5.91 13.09 3 9.5 3S3 5.91 3 9.5 5.91 16 9.5 16c1.61 0 3.09-.59 4.23-1.57l.27.28v.79l5 4.99L20.49 19l-4.99-5zm-6 0C7.01 14 5 11.99 5 9.5S7.01 5 9.5 5 14 7.01 14 9.5 11.99 14 9.5 14z"/></svg>
      </g>
      <text x="88" y="48" font-family="-apple-system, system-ui, sans-serif" font-size="20" font-weight="bold" fill="#ffffff">SEO Optimization</text>
      <text x="88" y="70" font-family="-apple-system, system-ui, sans-serif" font-size="14" fill="#8b949e">Elevating online visibility.</text>
    </g><g transform="translate(510, 240)">
      <rect x="0.5" y="0.5" width="489" height="99" rx="16" fill="#0A0D12" stroke="#30363D" stroke-width="1"/>
      <rect x="20" y="26" width="48" height="48" rx="8" fill="#12171E" />
      <g transform="translate(32, 38)">
        <svg viewBox="0 0 24 24" width="24" height="24"><path fill="#ffffff" d="M20 4H4c-1.1 0-2 .9-2 2v12c0 1.1.9 2 2 2h16c1.1 0 2-.9 2-2V6c0-1.1-.9-2-2-2zm-8.5 11H5v-2h6.5v2zm-2.09-3.41L5 8.09 6.41 6.67 10.74 11l-4.33 4.33L5 13.91l4.41-4.41z"/></svg>
      </g>
      <text x="88" y="48" font-family="-apple-system, system-ui, sans-serif" font-size="20" font-weight="bold" fill="#ffffff">Python Development</text>
      <text x="88" y="70" font-family="-apple-system, system-ui, sans-serif" font-size="14" fill="#8b949e">Scripting &amp; Backend solutions.</text>
    </g>
</svg>