<svg width="1000" height="80" xmlns="http://www.w3.org/2000/svg">
<g transform="translate(0, 0)">
      <rect x="0.5" y="0.5" width="489" height="79" rx="16" fill="#0A0D12" stroke="#30363D" stroke-width="1"/>
      <rect x="16" y="16" width="48" height="48" rx="8" fill="#12171E" />
      <g transform="translate(28, 28)">
        <svg viewBox="0 0 24 24" width="24" height="24"><path fill="#ffffff" d="M18 4l2 4h-3l-2-4h-2l2 4h-3l-2-4H8l2 4H7L5 4H4c-1.1 0-1.99.9-1.99 2L2 18c0 1.1.9 2 2 2h16c1.1 0 2-.9 2-2V4h-4z"/></svg>
      </g>
      <text x="76" y="46" font-family="-apple-system, system-ui, sans-serif" font-size="18" font-weight="bold" fill="#ffffff">Video Editing</text>
    </g><g transform="translate(510, 0)">
      <rect x="0.5" y="0.5" width="489" height="79" rx="16" fill="#0A0D12" stroke="#30363D" stroke-width="1"/>
      <rect x="16" y="16" width="48" height="48" rx="8" fill="#12171E" />
      <g transform="translate(28, 28)">
        <svg viewBox="0 0 24 24" width="24" height="24"><path fill="#ffffff" d="M12 2C6.48 2 2 6.48 2 12s4.48 10 10 10 10-4.48 10-10S17.52 2 12 2zm-2 14.5v-9l6 4.5-6 4.5z"/></svg>
      </g>
      <text x="76" y="46" font-family="-apple-system, system-ui, sans-serif" font-size="18" font-weight="bold" fill="#ffffff">Motion Graphics</text>
    </g>
</svg>