<svg width="1000" height="80" xmlns="http://www.w3.org/2000/svg"><g transform="translate(0, 0)">
      <rect x="0.5" y="0.5" width="489" height="79" rx="12" fill="#0D1117" stroke="#30363D" stroke-width="1"/>
      <rect x="16" y="16" width="48" height="48" rx="6" fill="#161b22" />
      <g transform="translate(28, 28)">
        <svg
  xmlns="http://www.w3.org/2000/svg"
  width="24"
  height="24"
  viewBox="0 0 24 24"
  fill="none"
  stroke="#ffffff"
  stroke-width="2"
  stroke-linecap="round"
  stroke-linejoin="round"
>
  <rect width="18" height="18" x="3" y="3" rx="2" />
  <path d="M7 3v18" />
  <path d="M3 7.5h4" />
  <path d="M3 12h18" />
  <path d="M3 16.5h4" />
  <path d="M17 3v18" />
  <path d="M17 7.5h4" />
  <path d="M17 16.5h4" />
</svg>

      </g>
      <text x="76" y="46" font-family="-apple-system, system-ui, sans-serif" font-size="18" font-weight="bold" fill="#ffffff">Video Editing</text>
    </g><g transform="translate(510, 0)">
      <rect x="0.5" y="0.5" width="489" height="79" rx="12" fill="#0D1117" stroke="#30363D" stroke-width="1"/>
      <rect x="16" y="16" width="48" height="48" rx="6" fill="#161b22" />
      <g transform="translate(28, 28)">
        <svg
  xmlns="http://www.w3.org/2000/svg"
  width="24"
  height="24"
  viewBox="0 0 24 24"
  fill="none"
  stroke="#ffffff"
  stroke-width="2"
  stroke-linecap="round"
  stroke-linejoin="round"
>
  <path d="M11.017 2.814a1 1 0 0 1 1.966 0l1.051 5.558a2 2 0 0 0 1.594 1.594l5.558 1.051a1 1 0 0 1 0 1.966l-5.558 1.051a2 2 0 0 0-1.594 1.594l-1.051 5.558a1 1 0 0 1-1.966 0l-1.051-5.558a2 2 0 0 0-1.594-1.594l-5.558-1.051a1 1 0 0 1 0-1.966l5.558-1.051a2 2 0 0 0 1.594-1.594z" />
  <path d="M20 2v4" />
  <path d="M22 4h-4" />
  <circle cx="4" cy="20" r="2" />
</svg>

      </g>
      <text x="76" y="46" font-family="-apple-system, system-ui, sans-serif" font-size="18" font-weight="bold" fill="#ffffff">Motion Graphics</text>
    </g></svg>